# xmcd
#
# Track frame offsets: 
#        150
#        10332
#        23122
#        38002
#        52095
#        65235
#        77917
#        89645
#        101229
#        112950
#        123267
#        136847
#
# Disc length: 1966 seconds
#
# Revision: 1
# Processed by: cddbd v1.5.1PL2 Copyright (c) Steve Scherf et al.
# Submitted via: ExactAudioCopy v0.95a3
#
DISCID=a307ac0c
DTITLE=Zé Fortuna and Pitangueira - O Homem D´Água
DYEAR=1900
DGENRE=Sertanejo
TTITLE0=Mané Preguiça
TTITLE1=As Duas Sombras
TTITLE2=A Justiça De Um Filho
TTITLE3=O Homem D´Água
TTITLE4=Voz De Criança
TTITLE5=A História Dos Times
TTITLE6=Cachorro Que Enjeita Osso
TTITLE7=A Piada Do Sabe, Sabe
TTITLE8=O Palpite Do Sapo
TTITLE9=Italiano Leiloeiro
TTITLE10=Um Filho Só
TTITLE11=El Picolo Mundo
EXTD=Sábia.
EXTT0=
EXTT1=
EXTT2=
EXTT3=
EXTT4=
EXTT5=
EXTT6=
EXTT7=
EXTT8=
EXTT9=
EXTT10=
EXTT11=
PLAYORDER=
